<?xml version="1.0" encoding="UTF-8"?>
<svg width="200" height="50" viewBox="0 0 200 50" fill="none" xmlns="http://www.w3.org/2000/svg">
  <g clip-path="url(#clip0_1_1)">
    <!-- Circle logo -->
    <path d="M35 25C35 30.5228 30.5228 35 25 35C19.4772 35 15 30.5228 15 25C15 19.4772 19.4772 15 25 15C30.5228 15 35 19.4772 35 25Z" fill="#004A8F"/>
    <!-- Horizontal line -->
    <path d="M45 25H180" stroke="#004A8F" stroke-width="2"/>
    <!-- Company name as path -->
    <path d="M65.1504 30H62.3125V20.0938H65.2441C66.3066 20.0938 67.2051 20.3027 67.9395 20.7207C68.6777 21.1387 69.2344 21.7461 69.6094 22.543C69.9883 23.3359 70.1777 24.2812 70.1777 25.3789V25.7266C70.1777 26.8281 69.9902 27.7754 69.6152 28.5684C69.2441 29.3613 68.6895 29.9668 67.9512 30.3848C67.2168 30.7988 66.3184 31.0078 65.1504 30ZM63.9219 21.4141V28.6855H65.1152C66.0449 28.6855 66.7637 28.3887 67.2715 27.7949C67.7793 27.1973 68.0391 26.3301 68.0508 25.1934V25.3672C68.0508 24.1953 67.7988 23.3086 67.2949 22.707C66.791 22.1055 66.0762 21.8047 65.1504 21.8047L63.9219 21.4141ZM77.0566 27.4238H73.8125L73.1426 30H71.4746L74.5762 20.0938H76.293L79.4062 30H77.7383L77.0566 27.4238ZM74.2344 25.9316H76.6348L75.4346 22.0176L74.2344 25.9316ZM84.9375 26.4844H82.2051V30H80.5957V20.0938H84.6602C85.8867 20.0938 86.8359 20.3633 87.5078 20.9023C88.1797 21.4414 88.5156 22.2266 88.5156 23.2578C88.5156 23.9453 88.3379 24.5273 87.9824 25.0039C87.6309 25.4805 87.1211 25.8359 86.4531 26.0703L89.0273 29.9062V30H87.3125L84.9375 26.4844ZM82.2051 25.0039H84.6719C85.3633 25.0039 85.9102 24.8379 86.3125 24.5059C86.7188 24.1738 86.9219 23.7266 86.9219 23.1641C86.9219 22.5547 86.7305 22.084 86.3477 21.752C85.9688 21.4199 85.4141 21.25 84.6836 21.25H82.2051V25.0039ZM94.3184 25.9316L96.4453 20.0938H98.2188L94.9453 28.1934V30H93.6914V28.1934L90.418 20.0938H92.1914L94.3184 25.9316ZM103.477 27.4238H100.232L99.5625 30H97.8945L101.002 20.0938H102.719L105.832 30H104.164L103.477 27.4238ZM100.654 25.9316H103.055L101.855 22.0176L100.654 25.9316ZM111.375 26.4844H108.643V30H107.033V20.0938H111.098C112.324 20.0938 113.273 20.3633 113.945 20.9023C114.617 21.4414 114.953 22.2266 114.953 23.2578C114.953 23.9453 114.775 24.5273 114.42 25.0039C114.068 25.4805 113.559 25.8359 112.891 26.0703L115.465 29.9062V30H113.75L111.375 26.4844ZM108.643 25.0039H111.109C111.801 25.0039 112.348 24.8379 112.75 24.5059C113.156 24.1738 113.359 23.7266 113.359 23.1641C113.359 22.5547 113.168 22.084 112.785 21.752C112.406 21.4199 111.852 21.25 111.121 21.25H108.643V25.0039ZM120.756 27.4238H117.512L116.842 30H115.174L118.275 20.0938H119.992L123.105 30H121.438L120.756 27.4238ZM117.934 25.9316H120.334L119.134 22.0176L117.934 25.9316ZM128.654 26.4844H125.922V30H124.312V20.0938H128.377C129.604 20.0938 130.553 20.3633 131.225 20.9023C131.896 21.4414 132.232 22.2266 132.232 23.2578C132.232 23.9453 132.055 24.5273 131.699 25.0039C131.348 25.4805 130.838 25.8359 130.17 26.0703L132.744 29.9062V30H131.029L128.654 26.4844ZM125.922 25.0039H128.389C129.08 25.0039 129.627 24.8379 130.029 24.5059C130.436 24.1738 130.639 23.7266 130.639 23.1641C130.639 22.5547 130.447 22.084 130.064 21.752C129.686 21.4199 129.131 21.25 128.4 21.25H125.922V25.0039ZM138.035 27.4238H134.791L134.121 30H132.453L135.555 20.0938H137.271L140.385 30H138.717L138.035 27.4238ZM135.213 25.9316H137.613L136.414 22.0176L135.213 25.9316ZM145.934 26.4844H143.201V30H141.592V20.0938H145.656C146.883 20.0938 147.832 20.3633 148.504 20.9023C149.176 21.4414 149.512 22.2266 149.512 23.2578C149.512 23.9453 149.334 24.5273 148.979 25.0039C148.627 25.4805 148.117 25.8359 147.449 26.0703L150.023 29.9062V30H148.309L145.934 26.4844ZM143.201 25.0039H145.668C146.359 25.0039 146.906 24.8379 147.309 24.5059C147.715 24.1738 147.918 23.7266 147.918 23.1641C147.918 22.5547 147.727 22.084 147.344 21.752C146.965 21.4199 146.41 21.25 145.68 21.25H143.201V25.0039ZM155.314 27.4238H152.07L151.4 30H149.732L152.834 20.0938H154.551L157.664 30H155.996L155.314 27.4238ZM152.492 25.9316H154.893L153.693 22.0176L152.492 25.9316ZM163.213 26.4844H160.48V30H158.871V20.0938H162.936C164.162 20.0938 165.111 20.3633 165.783 20.9023C166.455 21.4414 166.791 22.2266 166.791 23.2578C166.791 23.9453 166.613 24.5273 166.258 25.0039C165.906 25.4805 165.396 25.8359 164.729 26.0703L167.303 29.9062V30H165.588L163.213 26.4844ZM160.48 25.0039H162.947C163.639 25.0039 164.186 24.8379 164.588 24.5059C164.994 24.1738 165.197 23.7266 165.197 23.1641C165.197 22.5547 165.006 22.084 164.623 21.752C164.244 21.4199 163.689 21.25 162.959 21.25H160.48V25.0039Z" fill="#004A8F"/>
  </g>
  <defs>
    <clipPath id="clip0_1_1">
      <rect width="200" height="50" fill="white"/>
    </clipPath>
  </defs>
</svg>
