<svg xmlns="http://www.w3.org/2000/svg" width="200" height="40" viewBox="0 0 200 40">
  <g fill="#004A8F">
    <path d="M20.1 30h-2.8v-10h2.9c1.1 0 2 0.2 2.7 0.6 0.7 0.4 1.3 1 1.7 1.8 0.4 0.8 0.6 1.7 0.6 2.8v0.3c0 1.1-0.2 2-0.6 2.8-0.4 0.8-0.9 1.4-1.7 1.8-0.7 0.4-1.6 0.6-2.8 0.6zm-1.3-8.6v7.2h1.2c0.9 0 1.6-0.3 2.1-0.9 0.5-0.6 0.8-1.5 0.8-2.6v-0.2c0-1.2-0.3-2-0.8-2.6-0.5-0.6-1.2-0.9-2.1-0.9h-1.2z"/>
    <path d="M31.9 27.4h-3.2l-0.7 2.6h-1.7l3.1-10h1.7l3.1 10h-1.7l-0.6-2.6zm-2.8-1.5h2.4l-1.2-3.9-1.2 3.9z"/>
    <path d="M39.8 26.5h-2.7V30h-1.6v-10h4.1c1.2 0 2.2 0.3 2.8 0.8 0.7 0.5 1 1.3 1 2.4 0 0.7-0.2 1.3-0.5 1.7-0.4 0.5-0.9 0.8-1.5 1l2.6 3.9V30h-1.7l-2.4-3.5zm-2.7-1.5h2.5c0.7 0 1.2-0.2 1.6-0.5 0.4-0.3 0.6-0.8 0.6-1.3 0-0.6-0.2-1.1-0.6-1.4-0.4-0.3-0.9-0.5-1.7-0.5h-2.4v3.7z"/>
    <path d="M49.3 25.9l2.1-5.8h1.8l-3.3 8.1V30h-1.3v-1.8l-3.3-8.1h1.8l2.2 5.8z"/>
    <path d="M58.5 27.4h-3.2l-0.7 2.6h-1.7l3.1-10h1.7l3.1 10h-1.7l-0.6-2.6zm-2.8-1.5h2.4l-1.2-3.9-1.2 3.9z"/>
    <path d="M66.4 26.5h-2.7V30h-1.6v-10h4.1c1.2 0 2.2 0.3 2.8 0.8 0.7 0.5 1 1.3 1 2.4 0 0.7-0.2 1.3-0.5 1.7-0.4 0.5-0.9 0.8-1.5 1l2.6 3.9V30h-1.7l-2.4-3.5zm-2.7-1.5h2.5c0.7 0 1.2-0.2 1.6-0.5 0.4-0.3 0.6-0.8 0.6-1.3 0-0.6-0.2-1.1-0.6-1.4-0.4-0.3-0.9-0.5-1.7-0.5h-2.4v3.7z"/>
    <path d="M75.8 27.4h-3.2l-0.7 2.6h-1.7l3.1-10h1.7l3.1 10h-1.7l-0.6-2.6zm-2.8-1.5h2.4l-1.2-3.9-1.2 3.9z"/>
    <path d="M83.7 26.5H81V30h-1.6v-10h4.1c1.2 0 2.2 0.3 2.8 0.8 0.7 0.5 1 1.3 1 2.4 0 0.7-0.2 1.3-0.5 1.7-0.4 0.5-0.9 0.8-1.5 1l2.6 3.9V30h-1.7l-2.4-3.5zM81 25h2.5c0.7 0 1.2-0.2 1.6-0.5 0.4-0.3 0.6-0.8 0.6-1.3 0-0.6-0.2-1.1-0.6-1.4-0.4-0.3-0.9-0.5-1.7-0.5H81v3.7z"/>
    <path d="M93.1 27.4h-3.2l-0.7 2.6h-1.7l3.1-10h1.7l3.1 10h-1.7l-0.6-2.6zm-2.8-1.5h2.4l-1.2-3.9-1.2 3.9z"/>
    <path d="M101 26.5h-2.7V30h-1.6v-10h4.1c1.2 0 2.2 0.3 2.8 0.8 0.7 0.5 1 1.3 1 2.4 0 0.7-0.2 1.3-0.5 1.7-0.4 0.5-0.9 0.8-1.5 1l2.6 3.9V30h-1.7l-2.4-3.5zm-2.7-1.5h2.5c0.7 0 1.2-0.2 1.6-0.5 0.4-0.3 0.6-0.8 0.6-1.3 0-0.6-0.2-1.1-0.6-1.4-0.4-0.3-0.9-0.5-1.7-0.5h-2.4v3.7z"/>
  </g>
</svg>
